HIERARCHY
ROOT Hips
{
	OFFSET 0.000000 0.000000 0.000000
	CHANNELS 6 Xposition Yposition Zposition Zrotation Yrotation Xrotation 
	JOINT LeftUpLeg_virtual
	{
		OFFSET 0.000000 0.000000 0.000000
		CHANNELS 3 Zrotation Yrotation Xrotation
		JOINT LeftUpLeg
		{
			OFFSET 8.479694 -4.795517 -0.379053
			CHANNELS 3 Zrotation Yrotation Xrotation
			JOINT LeftLeg
			{
				OFFSET 0.485052 -32.551468 0.112863
				CHANNELS 3 Zrotation Yrotation Xrotation
				JOINT LeftFoot
				{
					OFFSET 0.438033 -32.635670 -3.012641
					CHANNELS 3 Zrotation Yrotation Xrotation
					JOINT LeftToeBase
					{
						OFFSET 0.970169 -13.225353 11.864223
						CHANNELS 3 Zrotation Yrotation Xrotation
						End Site
						{
							OFFSET 0.000000 0.000000 0.000000
						}
					}
				}
			}
		}
	}
	JOINT RightUpLeg_virtual
	{
		OFFSET 0.000000 0.000000 0.000000
		CHANNELS 3 Zrotation Yrotation Xrotation
		JOINT RightUpLeg
		{
			OFFSET -8.479694 -4.795517 -0.379053
			CHANNELS 3 Zrotation Yrotation Xrotation
			JOINT RightLeg
			{
				OFFSET -0.484100 -32.551483 0.112903
				CHANNELS 3 Zrotation Yrotation Xrotation
				JOINT RightFoot
				{
					OFFSET -0.438985 -32.635651 -3.012681
					CHANNELS 3 Zrotation Yrotation Xrotation
					JOINT RightToeBase
					{
						OFFSET -0.970169 -13.225354 11.864223
						CHANNELS 3 Zrotation Yrotation Xrotation
						End Site
						{
							OFFSET 0.000000 0.000000 0.000000
						}
					}
				}
			}
		}
	}
	JOINT Spine_virtual
	{
		OFFSET 0.000000 0.000000 0.000000
		CHANNELS 3 Zrotation Yrotation Xrotation
		JOINT Spine
		{
			OFFSET 0.000000 7.722015 1.166203
			CHANNELS 3 Zrotation Yrotation Xrotation
			JOINT Spine1
			{
				OFFSET 0.000000 12.024086 0.248766
				CHANNELS 3 Zrotation Yrotation Xrotation
				JOINT Spine2
				{
					OFFSET -0.000000 11.503036 -0.491240
					CHANNELS 3 Zrotation Yrotation Xrotation
					JOINT Neck_virtual
					{
						OFFSET 0.000000 0.000000 0.000000
						CHANNELS 3 Zrotation Yrotation Xrotation
						JOINT Neck
						{
							OFFSET 0.000000 18.430687 -3.123054
							CHANNELS 3 Zrotation Yrotation Xrotation
							JOINT Head
							{
								OFFSET -0.000000 9.051071 1.034021
								CHANNELS 3 Zrotation Yrotation Xrotation
								End Site
								{
									OFFSET 0.000000 0.000000 0.000000
								}
							}
						}
					}
					JOINT LeftShoulder_virtual
					{
						OFFSET 0.000000 0.000000 0.000000
						CHANNELS 3 Zrotation Yrotation Xrotation
						JOINT LeftShoulder
						{
							OFFSET 6.197824 13.665230 -4.064723
							CHANNELS 3 Zrotation Yrotation Xrotation
							JOINT LeftArm
							{
								OFFSET 7.778132 -0.187073 -1.709282
								CHANNELS 3 Zrotation Yrotation Xrotation
								JOINT LeftForeArm
								{
									OFFSET 21.954697 0.000000 -2.041093
									CHANNELS 3 Zrotation Yrotation Xrotation
									JOINT LeftHand
									{
										OFFSET 22.992908 0.000000 -0.870901
										CHANNELS 3 Zrotation Yrotation Xrotation
										End Site
										{
											OFFSET 0.000000 0.000000 0.000000
										}
									}
								}
							}
						}
					}
					JOINT RightShoulder_virtual
					{
						OFFSET 0.000000 0.000000 0.000000
						CHANNELS 3 Zrotation Yrotation Xrotation
						JOINT RightShoulder
						{
							OFFSET -6.197824 13.665230 -4.064723
							CHANNELS 3 Zrotation Yrotation Xrotation
							JOINT RightArm
							{
								OFFSET -7.778132 -0.187073 -1.709282
								CHANNELS 3 Zrotation Yrotation Xrotation
								JOINT RightForeArm
								{
									OFFSET -21.954697 0.000000 -2.041093
									CHANNELS 3 Zrotation Yrotation Xrotation
									JOINT RightHand
									{
										OFFSET -22.992908 0.000000 -0.870901
										CHANNELS 3 Zrotation Yrotation Xrotation
										End Site
										{
											OFFSET 0.000000 0.000000 0.000000
										}
									}
								}
							}
						}
					}
				}
			}
		}
	}
}
MOTION
Frames: 7
Frame Time: 0.033333
8.668356 81.764091 34.716885 -179.976851 6.443256 -179.984924 -4.329073 0.141747 11.412135 -1.226540 -2.055465 -25.892940 5.175059 5.264883 24.083370 -2.993273 -8.049562 -6.986890 0.000000 0.000000 0.000000 -0.214291 -0.217343 10.990835 -2.939214 2.428290 -16.727634 -2.003113 4.328020 23.946498 8.867314 7.545228 -10.915768 0.000000 0.000000 0.000000 3.472742 2.056946 2.057794 -5.734977 1.190299 -2.588113 0.910499 -4.023106 2.437238 -0.035681 -0.012361 -0.012508 0.740831 -2.948180 3.477047 -0.310911 3.847694 -13.990621 0.000000 0.000000 0.000000 1.922044 -2.031101 0.688640 10.298589 0.281499 -7.233644 -16.643784 7.774392 -34.399787 -6.545998 -20.145353 -2.117027 0.000000 0.000000 0.000000 -1.669281 -0.892548 0.194478 4.244525 -4.187244 -8.372226 23.781011 -19.469922 -40.150109 0.315294 26.367829 -7.333629 0.000000 0.000000 0.000000 
8.659234 81.752647 34.712463 -179.903576 6.264675 179.961756 -4.305906 0.142364 11.402154 -1.179514 -2.000934 -25.864407 5.151385 5.475304 23.996948 -2.967849 -8.035589 -7.047965 0.000000 0.000000 0.000000 -0.237952 -0.275181 11.076545 -3.043239 2.931770 -16.671027 -2.124695 4.774736 23.748416 8.901010 7.626256 -11.579983 0.000000 0.000000 0.000000 3.464568 2.019495 2.101410 -5.670215 1.165196 -2.556361 0.938343 -4.033543 2.444209 -0.014629 -0.030035 0.007306 0.679215 -2.984957 3.398242 -0.264281 3.824522 -13.953362 0.000000 0.000000 0.000000 1.855236 -2.070954 0.615126 10.264361 0.247601 -7.109667 -16.573232 7.906326 -34.359943 -6.500102 -20.312110 -1.947588 0.000000 0.000000 0.000000 -1.736028 -0.969217 0.111221 4.329830 -4.204388 -8.415378 23.868342 -19.648089 -40.096981 0.332109 26.396735 -7.268314 0.000000 0.000000 0.000000 
8.666561 81.745811 34.685390 -179.908180 6.229590 -179.943588 -4.279613 0.116225 11.419030 -1.156359 -1.961460 -25.906271 5.082827 5.574139 23.966171 -2.993737 -8.080889 -7.059873 0.000000 0.000000 0.000000 -0.224459 -0.163241 11.095720 -3.050574 2.929670 -16.789667 -2.128871 4.733269 23.810499 8.810192 7.580824 -11.592822 0.000000 0.000000 0.000000 3.407268 2.015504 2.074696 -5.602685 1.140359 -2.617456 0.957410 -4.074665 2.397882 0.011345 -0.069277 -0.010727 0.647317 -2.998567 3.439074 -0.233625 3.901077 -13.870242 0.000000 0.000000 0.000000 1.828329 -1.997067 0.639250 10.321872 0.337109 -7.084964 -16.622836 8.030763 -34.399237 -6.474719 -20.507744 -1.915438 0.000000 0.000000 0.000000 -1.738764 -0.938965 0.224957 4.452625 -4.193531 -8.401437 23.902129 -19.679746 -40.215795 0.398434 26.469561 -7.150023 0.000000 0.000000 0.000000 
8.688770 81.733032 34.663578 -179.929067 6.117289 -179.995005 -4.284681 0.155914 11.496137 -1.079908 -2.103934 -25.959181 5.045195 5.605553 24.023087 -2.999799 -8.110619 -7.095080 0.000000 0.000000 0.000000 -0.218726 -0.239316 11.163900 -3.033010 2.914033 -16.874097 -2.117510 4.741738 24.063214 8.733295 7.576825 -11.683727 0.000000 0.000000 0.000000 3.377415 2.040326 2.119488 -5.537482 1.160518 -2.618115 0.871242 -3.995578 2.417752 0.026060 -0.019794 -0.006776 0.634909 -2.991395 3.382232 -0.114387 3.666032 -13.728503 0.000000 0.000000 0.000000 1.819930 -2.026811 0.626107 10.399915 0.266585 -7.033106 -16.517631 8.017266 -34.300841 -6.399603 -20.625508 -1.888816 0.000000 0.000000 0.000000 -1.734226 -1.010648 0.114433 4.617063 -4.319966 -8.176893 24.101246 -19.655785 -40.261650 0.295007 26.574422 -7.199741 0.000000 0.000000 0.000000 
8.717371 81.724648 34.634659 -179.894984 5.977970 -179.971837 -4.263467 0.075161 11.533689 -1.023584 -2.194946 -26.013134 5.027587 5.617195 24.056614 -2.990097 -8.115065 -7.167940 0.000000 0.000000 0.000000 -0.197691 -0.212188 11.221489 -3.003287 2.894829 -17.039345 -2.082761 4.669974 24.315993 8.599456 7.534003 -11.628708 0.000000 0.000000 0.000000 3.352033 2.038825 2.098287 -5.412700 1.125891 -2.650340 0.923395 -4.001709 2.406120 0.016149 -0.044073 -0.026621 0.577217 -3.013032 3.390386 0.026288 3.662220 -13.562821 0.000000 0.000000 0.000000 1.735815 -1.992128 0.641416 10.337247 0.223128 -6.962236 -16.373830 7.973334 -34.158295 -6.342734 -20.698839 -1.905713 0.000000 0.000000 0.000000 -1.804883 -0.969976 0.156304 4.766942 -4.348367 -8.095489 24.153898 -19.574294 -40.490488 0.345855 26.653061 -7.166912 0.000000 0.000000 0.000000 
8.751559 81.715034 34.602997 -179.959229 6.025636 -179.969802 -4.319554 0.102291 11.566298 -0.951672 -2.374600 -26.074469 5.022807 5.733347 24.130855 -2.942064 -8.064746 -7.228973 0.000000 0.000000 0.000000 -0.256170 -0.105615 11.246981 -2.982589 2.812534 -17.191139 -2.026792 4.646880 24.566196 8.503808 7.550240 -11.655691 0.000000 0.000000 0.000000 3.288405 2.068240 2.075639 -5.333007 1.130107 -2.619669 0.859456 -3.958368 2.453750 -0.033663 -0.027970 -0.007351 0.630073 -2.907990 3.376470 0.160565 3.528155 -13.340860 0.000000 0.000000 0.000000 1.792069 -1.963133 0.649713 10.453736 0.218557 -7.026272 -16.312754 7.811748 -34.162151 -6.338606 -20.737865 -1.858403 0.000000 0.000000 0.000000 -1.770505 -0.862131 0.142167 4.926918 -4.468597 -8.153538 24.165472 -19.516332 -40.344794 0.415580 26.746978 -7.020428 0.000000 0.000000 0.000000 
8.798931 81.702171 34.569981 -179.901281 6.003444 -179.964939 -4.303041 0.139903 11.561279 -0.825748 -2.474200 -26.112530 5.048047 5.692099 24.321030 -2.960361 -8.086198 -7.332486 0.000000 0.000000 0.000000 -0.262662 -0.170375 11.237431 -2.898723 2.781838 -17.292267 -1.997226 4.654922 24.780910 8.438775 7.573291 -11.683547 0.000000 0.000000 0.000000 3.303078 2.069835 2.038480 -5.167593 1.134911 -2.592577 0.873169 -3.899465 2.489827 -0.008853 -0.003840 0.002981 0.567954 -2.864371 3.374223 0.249672 3.359934 -13.142750 0.000000 0.000000 0.000000 1.689741 -1.941665 0.679031 10.389421 0.124299 -6.877629 -16.352561 7.581204 -34.023836 -6.221040 -20.798852 -1.614662 0.000000 0.000000 0.000000 -1.850225 -0.913298 0.159491 5.069472 -4.502791 -7.983668 24.225043 -19.424664 -40.056952 0.381027 26.909726 -7.010304 0.000000 0.000000 0.000000 
